<svg width="800" height="600" xmlns="http://www.w3.org/2000/svg">
  <!-- Background -->
  <rect width="800" height="600" fill="#f3f4f6" />
  
  <!-- WhatsApp Interface Container -->
  <rect x="100" y="100" width="600" height="400" rx="10" fill="#ffffff" stroke="#e5e7eb" stroke-width="2" />
  
  <!-- Header Bar -->
  <rect x="100" y="100" width="600" height="50" rx="10" fill="#25d366" />
  <text x="150" y="130" font-family="Arial" font-size="18" fill="#ffffff">WhatsApp Business Manager</text>
  
  <!-- Left Side - Contacts List -->
  <rect x="100" y="150" width="200" height="350" fill="#f0fdf4" />
  
  <!-- Search Bar -->
  <rect x="110" y="160" width="180" height="30" rx="15" fill="#ffffff" stroke="#e5e7eb" stroke-width="1" />
  <text x="140" y="180" font-family="Arial" font-size="12" fill="#9ca3af">Search contacts...</text>
  
  <!-- Contacts -->
  <rect x="110" y="200" width="180" height="60" rx="5" fill="#ffffff" stroke="#e5e7eb" stroke-width="1" />
  <circle cx="135" cy="230" r="15" fill="#22c55e" />
  <text x="135" y="235" font-family="Arial" font-size="14" fill="#ffffff" text-anchor="middle">R</text>
  <text x="190" y="220" font-family="Arial" font-size="14" fill="#1f2937">Rajesh Kumar</text>
  <text x="190" y="240" font-family="Arial" font-size="11" fill="#6b7280">Latest message...</text>
  
  <rect x="110" y="270" width="180" height="60" rx="5" fill="#dcfce7" />
  <circle cx="135" cy="300" r="15" fill="#22c55e" />
  <text x="135" y="305" font-family="Arial" font-size="14" fill="#ffffff" text-anchor="middle">P</text>
  <text x="190" y="290" font-family="Arial" font-size="14" fill="#1f2937">Priya Sharma</text>
  <text x="190" y="310" font-family="Arial" font-size="11" fill="#6b7280">Can you send catalog...</text>
  
  <rect x="110" y="340" width="180" height="60" rx="5" fill="#ffffff" stroke="#e5e7eb" stroke-width="1" />
  <circle cx="135" cy="370" r="15" fill="#22c55e" />
  <text x="135" y="375" font-family="Arial" font-size="14" fill="#ffffff" text-anchor="middle">A</text>
  <text x="190" y="360" font-family="Arial" font-size="14" fill="#1f2937">Amit Patel</text>
  <text x="190" y="380" font-family="Arial" font-size="11" fill="#6b7280">Thank you for info...</text>
  
  <!-- Right Side - Chat Window -->
  <rect x="300" y="150" width="400" height="350" fill="#ffffff" />
  
  <!-- Chat Header -->
  <rect x="300" y="150" width="400" height="50" fill="#f0fdf4" />
  <circle cx="330" cy="175" r="15" fill="#22c55e" />
  <text x="330" y="180" font-family="Arial" font-size="14" fill="#ffffff" text-anchor="middle">P</text>
  <text x="370" y="180" font-family="Arial" font-size="14" fill="#1f2937">Priya Sharma</text>
  
  <!-- Chat Messages -->
  <rect x="485" y="220" width="200" height="40" rx="10" fill="#dcfce7" />
  <text x="580" y="245" font-family="Arial" font-size="12" fill="#166534" text-anchor="middle">Hello, how can I help you?</text>
  
  <rect x="315" y="270" width="220" height="40" rx="10" fill="#f3f4f6" />
  <text x="425" y="295" font-family="Arial" font-size="12" fill="#4b5563" text-anchor="middle">Can you send me catalog for diamond sets?</text>
  
  <rect x="435" y="320" width="250" height="60" rx="10" fill="#dcfce7" />
  <text x="560" y="345" font-family="Arial" font-size="12" fill="#166534" text-anchor="middle">Here's our latest diamond collection.</text>
  <rect x="460" y="360" width="40" height="10" rx="5" fill="#0ea5e9" />
  <text x="525" y="368" font-family="Arial" font-size="10" fill="#166534">catalog.pdf attached</text>
  
  <!-- Message Input -->
  <rect x="315" y="430" width="350" height="40" rx="20" fill="#f8fafc" stroke="#e5e7eb" stroke-width="1" />
  <text x="340" y="455" font-family="Arial" font-size="12" fill="#9ca3af">Type a message...</text>
  <circle cx="670" cy="450" r="15" fill="#22c55e" />
  <text x="670" y="455" font-family="Arial" font-size="14" fill="#ffffff" text-anchor="middle">➤</text>
  
  <!-- Text indicating this is a placeholder -->
  <text x="400" y="530" font-family="Arial" font-size="20" text-anchor="middle" fill="#6b7280">WhatsApp Features Image Placeholder</text>
</svg> 