<svg width="800" height="600" xmlns="http://www.w3.org/2000/svg">
  <!-- Background -->
  <rect width="800" height="600" fill="#f3f4f6" />
  
  <!-- Campaigns Dashboard Container -->
  <rect x="100" y="100" width="600" height="400" rx="10" fill="#ffffff" stroke="#e5e7eb" stroke-width="2" />
  
  <!-- Header Bar -->
  <rect x="100" y="100" width="600" height="50" rx="10" fill="#f59e0b" />
  <text x="150" y="130" font-family="Arial" font-size="18" fill="#ffffff">AI-Driven Campaign Manager</text>
  
  <!-- Left Side Navigation -->
  <rect x="100" y="150" width="150" height="350" fill="#fef3c7" />
  
  <!-- Menu Items -->
  <rect x="110" y="170" width="130" height="30" rx="5" fill="#f59e0b" />
  <text x="140" y="190" font-family="Arial" font-size="12" fill="#ffffff" text-anchor="middle">Campaigns</text>
  
  <rect x="110" y="210" width="130" height="30" rx="5" fill="#ffffff" stroke="#f59e0b" stroke-width="1" />
  <text x="140" y="230" font-family="Arial" font-size="12" fill="#f59e0b" text-anchor="middle">Festival Calendar</text>
  
  <rect x="110" y="250" width="130" height="30" rx="5" fill="#ffffff" stroke="#f59e0b" stroke-width="1" />
  <text x="140" y="270" font-family="Arial" font-size="12" fill="#f59e0b" text-anchor="middle">Templates</text>
  
  <rect x="110" y="290" width="130" height="30" rx="5" fill="#ffffff" stroke="#f59e0b" stroke-width="1" />
  <text x="140" y="310" font-family="Arial" font-size="12" fill="#f59e0b" text-anchor="middle">Customer Segments</text>
  
  <rect x="110" y="330" width="130" height="30" rx="5" fill="#ffffff" stroke="#f59e0b" stroke-width="1" />
  <text x="140" y="350" font-family="Arial" font-size="12" fill="#f59e0b" text-anchor="middle">Analytics</text>
  
  <!-- Main Content Area -->
  <rect x="260" y="160" width="430" height="330" rx="5" fill="#ffffff" stroke="#e5e7eb" stroke-width="1" />
  
  <!-- Active Campaign Card -->
  <rect x="280" y="180" width="390" height="120" rx="8" fill="#ffffff" stroke="#f59e0b" stroke-width="2" />
  <text x="300" y="210" font-family="Arial" font-size="16" font-weight="bold" fill="#f59e0b">Diwali Collection Preview</text>
  <text x="300" y="235" font-family="Arial" font-size="12" fill="#4b5563">Scheduled: Oct 15 - Nov 5, 2025</text>
  <text x="300" y="255" font-family="Arial" font-size="12" fill="#4b5563">Target: 1,200 customers | VIP and Loyal segments</text>
  
  <!-- AI Recommendation Bubble -->
  <rect x="500" y="190" width="150" height="60" rx="8" fill="#fef3c7" />
  <text x="520" y="215" font-family="Arial" font-size="10" fill="#92400e">AI Suggestion</text>
  <text x="520" y="235" font-family="Arial" font-size="10" fill="#92400e">Increase open rate by 20%</text>
  <text x="520" y="250" font-family="Arial" font-size="10" fill="#92400e">by adding personalization</text>
  
  <!-- Progress Bars -->
  <rect x="300" y="270" width="350" height="10" rx="5" fill="#e5e7eb" />
  <rect x="300" y="270" width="280" height="10" rx="5" fill="#f59e0b" />
  <text x="300" y="290" font-family="Arial" font-size="10" fill="#4b5563">Campaign Progress: 80%</text>
  
  <!-- Campaign Analytics Panel -->
  <rect x="280" y="320" width="390" height="150" rx="8" fill="#f9fafb" />
  <text x="300" y="345" font-family="Arial" font-size="14" font-weight="bold" fill="#1f2937">Campaign Performance</text>
  
  <!-- Metrics -->
  <rect x="300" y="360" width="100" height="80" rx="5" fill="#ffffff" stroke="#e5e7eb" stroke-width="1" />
  <text x="350" y="390" font-family="Arial" font-size="20" fill="#f59e0b" text-anchor="middle">82%</text>
  <text x="350" y="410" font-family="Arial" font-size="12" fill="#4b5563" text-anchor="middle">Open Rate</text>
  
  <rect x="430" y="360" width="100" height="80" rx="5" fill="#ffffff" stroke="#e5e7eb" stroke-width="1" />
  <text x="480" y="390" font-family="Arial" font-size="20" fill="#f59e0b" text-anchor="middle">48%</text>
  <text x="480" y="410" font-family="Arial" font-size="12" fill="#4b5563" text-anchor="middle">Engagement</text>
  
  <rect x="560" y="360" width="100" height="80" rx="5" fill="#ffffff" stroke="#e5e7eb" stroke-width="1" />
  <text x="610" y="390" font-family="Arial" font-size="20" fill="#f59e0b" text-anchor="middle">₹215K</text>
  <text x="610" y="410" font-family="Arial" font-size="12" fill="#4b5563" text-anchor="middle">Revenue</text>
  
  <!-- Text indicating this is a placeholder -->
  <text x="400" y="530" font-family="Arial" font-size="20" text-anchor="middle" fill="#6b7280">Campaigns Features Image Placeholder</text>
</svg> 